:SAMPLES-PER-SECOND 30
:FULLY-SPECIFIED
:DEGREES
245
root  -3.43342 40.9795 0.186591 -4.21822 -86.1491 5.64423
RightUpLeg  5.01412 -2.22138 -1.91079
RightLeg  -4.33968 -22.0751 2.19011
RightFoot  -0.170248 -0.29271 2.97983
RightToes  -3.11842e-008 1.75238e-005 3.56266e-009
Spine  -1.57574 0.769104 -1.45171
Spine1  1.18449 0.931301 -0.296841
HEad  -24.615 -4.89988 0.796048
LeftShoulder1  3.11497 -7.61146 -21.6875
LeftArm  -35.6012 -39.1472 -33.0599
LeftForeArm  150.057 -59.8441 -161.122
LeftHand  -0.46774 -4.70249 5.6876
RightShoulder  2.52312 6.31275 19.2706
RightArm  -46.5662 39.8568 18.3584
RightForeArm  133.894 52.383 164.356
RightHand  -0.877995 9.51622 -7.20929
LeftUpLeg  2.67308 0.730472 2.0839
LeftLeg  -4.09732 11.3565 -1.10269
LeftFoot  1.64023 0.150209 -1.3815
LeftToes  4.7713e-008 1.46693e-008 1.32589e-009
246
root  -2.97817 41.0036 0.156045 -1.49988 -86.3432 3.8548
RightUpLeg  3.34948 -1.86341 -1.7126
RightLeg  -4.67437 -22.2872 2.38731
RightFoot  0.658485 -0.278109 2.67899
RightToes  -3.11842e-008 1.75238e-005 3.56266e-009
Spine  -0.211864 0.759638 -1.14816
Spine1  2.06463 0.905433 -0.336566
HEad  -24.9417 -4.68931 0.507696
LeftShoulder1  3.03526 -7.32277 -21.6986
LeftArm  -34.9088 -39.5112 -33.6955
LeftForeArm  148.016 -58.9205 -161.589
LeftHand  -0.618005 -4.15297 7.79004
RightShoulder  2.45261 5.92786 19.5931
RightArm  -46.0224 40.1889 19.5905
RightForeArm  133.106 51.5549 164.724
RightHand  -0.886505 9.49577 -7.28237
LeftUpLeg  1.01784 0.482072 2.16885
LeftLeg  -4.33272 11.8623 -1.13052
LeftFoot  2.55998 0.144454 -1.31467
LeftToes  4.7713e-008 1.46693e-008 1.32589e-009
247
root  -2.55126 41.0207 0.121887 0.810333 -86.9338 2.65797
RightUpLeg  1.46502 -1.53651 -1.58474
RightLeg  -4.94088 -22.1562 2.59042
RightFoot  1.51265 -0.252989 2.294
RightToes  -3.11842e-008 1.75238e-005 3.56266e-009
Spine  0.132059 0.851679 -0.809013
Spine1  3.9403 1.06348 -0.670528
HEad  -23.9133 -4.90067 0.67246
LeftShoulder1  3.03721 -7.3469 -21.6534
LeftArm  -33.0883 -38.9381 -35.0091
LeftForeArm  145.488 -58.0814 -161.926
LeftHand  -0.580562 -4.41812 7.13172
RightShoulder  2.63379 6.22538 20.7527
RightArm  -44.041 39.4264 21.0375
RightForeArm  130.967 50.4002 165.15
RightHand  -0.889825 9.70219 -7.21807
LeftUpLeg  -0.579921 0.308353 2.30488
LeftLeg  -4.90774 12.6883 -1.36303
LeftFoot  3.5536 0.119908 -1.08303
LeftToes  4.7713e-008 1.46693e-008 1.32589e-009
248
root  -2.18639 41.0297 0.0832828 2.38264 -87.2253 2.45726
RightUpLeg  -0.528851 -1.27517 -1.55326
RightLeg  -5.28073 -22.2274 2.84282
RightFoot  2.26788 -0.241985 2.15991
RightToes  -3.11842e-008 1.75238e-005 3.56266e-009
Spine  -0.970746 0.728605 -1.55938
Spine1  7.30404 0.749133 0.411911
HEad  -23.7431 -4.32296 0.315853
LeftShoulder1  3.04057 -7.24551 -21.9582
LeftArm  -29.887 -36.6559 -37.2027
LeftForeArm  142.41 -56.1522 -162.885
LeftHand  -0.428867 -4.15025 5.52253
RightShoulder  2.83019 6.83337 21.0534
RightArm  -39.3616 37.502 24.7468
RightForeArm  128.656 48.7962 165.758
RightHand  -0.813795 9.89891 -6.55972
LeftUpLeg  -2.3902 0.150691 2.44032
LeftLeg  -5.47093 13.1285 -1.66539
LeftFoot  4.45897 0.108857 -0.97778
LeftToes  4.7713e-008 1.46693e-008 1.32589e-009
249
root  -1.86542 41.0321 0.0509394 5.29305 -87.5673 0.195023
RightUpLeg  -1.55181 -1.15453 -1.49098
RightLeg  -5.86204 -22.0841 3.24745
RightFoot  3.0045 -0.2166 1.8839
RightToes  -3.11842e-008 1.75238e-005 3.56266e-009
Spine  -0.25267 0.527046 -2.29263
Spine1  8.36023 0.345343 1.2296
HEad  -21.8754 -3.3308 0.932896
LeftShoulder1  3.40148 -8.03165 -23.2347
LeftArm  -25.3441 -30.7742 -38.5848
LeftForeArm  141.236 -54.3874 -163.813
LeftHand  -0.249907 -5.29864 2.996
RightShoulder  3.29386 7.85542 22.7925
RightArm  -32.0473 33.4356 29.1957
RightForeArm  126.104 47.767 166.074
RightHand  -0.625363 9.71662 -5.1869
LeftUpLeg  -3.50451 0.0108186 2.57198
LeftLeg  -5.65917 13.6709 -1.67297
LeftFoot  5.07366 0.130094 -1.11661
LeftToes  4.7713e-008 1.46693e-008 1.32589e-009
250
root  -1.61192 41.0271 0.0250788 4.14679 -88.0856 1.51363
RightUpLeg  -2.17168 -1.14911 -1.55123
RightLeg  -5.94242 -21.5741 3.32143
RightFoot  3.38444 -0.188874 1.64267
RightToes  -3.11842e-008 1.75238e-005 3.56266e-009
Spine  0.137159 0.337987 -2.63053
Spine1  10.118 0.167069 1.10997
HEad  -19.1657 -3.91611 1.19491
LeftShoulder1  3.76126 -8.59851 -24.9134
LeftArm  -19.6604 -23.3732 -40.5853
LeftForeArm  140.929 -53.7823 -164.116
LeftHand  0.242998 -6.43569 -1.97845
RightShoulder  3.71304 8.55654 24.6798
RightArm  -24.9741 27.2697 34.07
RightForeArm  123.951 47.9058 165.901
RightHand  -0.194078 9.34886 -1.89091
LeftUpLeg  -3.9891 -0.0627938 2.57904
LeftLeg  -5.79113 14.2618 -1.76316
LeftFoot  5.52732 0.117329 -1.01649
LeftToes  4.7713e-008 1.46693e-008 1.32589e-009
251
root  -1.44268 41.0151 0.00790834 1.12378 -88.532 4.55162
RightUpLeg  -2.63844 -1.0905 -1.60057
RightLeg  -5.64586 -21.1674 3.12708
RightFoot  3.42513 -0.202745 1.77289
RightToes  -3.11842e-008 1.75238e-005 3.56266e-009
Spine  0.865629 -0.00374093 -3.20244
Spine1  10.946 -0.163137 0.96209
HEad  -16.8842 -4.24975 2.32598
LeftShoulder1  4.08186 -8.97119 -26.6228
LeftArm  -13.5149 -13.6723 -41.8424
LeftForeArm  139.112 -54.0648 -163.834
LeftHand  0.757972 -8.0455 -6.18441
RightShoulder  4.14919 8.80848 27.7075
RightArm  -18.756 19.8777 37.07
RightForeArm  123.8 48.6668 165.557
RightHand  0.384595 9.02243 2.68028
LeftUpLeg  -4.28312 -0.100179 2.53672
LeftLeg  -5.65704 14.7661 -1.79559
LeftFoot  5.59662 0.105919 -0.954936
LeftToes  4.7713e-008 1.46693e-008 1.32589e-009
252
root  -1.38281 41.0087 0.000875731 2.71243 -88.94 2.86957
RightUpLeg  -2.85999 -1.00557 -1.52039
RightLeg  -5.24641 -20.8205 2.93303
RightFoot  3.3828 -0.214554 1.8388
RightToes  -3.11842e-008 1.75238e-005 3.56266e-009
Spine  0.354167 -0.377382 -4.47543
Spine1  13.0208 -0.810806 1.92525
HEad  -16.6542 -5.11264 2.90128
LeftShoulder1  4.45529 -9.32353 -28.6909
LeftArm  -7.69025 -5.78302 -41.8487
LeftForeArm  138.719 -54.9145 -163.335
LeftHand  0.900606 -7.99002 -7.41464
RightShoulder  4.53556 9.01507 30.3112
RightArm  -15.064 13.8858 36.7537
RightForeArm  124.95 49.1633 165.394
RightHand  0.69674 9.08558 5.15037
LeftUpLeg  -4.34953 0.0848813 2.67122
LeftLeg  -5.38252 14.9887 -1.84805
LeftFoot  5.43192 0.109511 -1.03964
LeftToes  4.7713e-008 1.46693e-008 1.32589e-009
253
root  -1.40098 41.0077 0.0188839 13.7742 -89.3617 -8.36389
RightUpLeg  -2.70956 -0.937834 -1.44667
RightLeg  -5.19371 -20.4006 2.85798
RightFoot  3.38598 -0.206861 1.77913
RightToes  -3.11842e-008 1.75238e-005 3.56266e-009
Spine  -0.827672 -0.84693 -5.5005
Spine1  14.9468 -1.42288 2.43504
HEad  -16.2125 -6.19825 3.44615
LeftShoulder1  4.72555 -9.85163 -29.3618
LeftArm  -4.46686 -0.494406 -42.0623
LeftForeArm  142.697 -56.4475 -162.731
LeftHand  0.995759 -8.00624 -8.21353
RightShoulder  4.56685 8.90375 30.8893
RightArm  -14.2643 9.63654 35.8753
RightForeArm  129.689 49.645 165.43
RightHand  0.873461 9.42694 6.4303
LeftUpLeg  -4.15865 0.194067 2.74181
LeftLeg  -5.19357 15.317 -1.81978
LeftFoot  5.26923 0.104449 -0.968153
LeftToes  4.7713e-008 1.46693e-008 1.32589e-009
254
root  -1.47275 41.0107 0.0441111 11.8136 -89.7971 -6.90099
RightUpLeg  -2.0146 -0.909852 -1.36568
RightLeg  -5.35004 -19.9756 2.84323
RightFoot  3.34035 -0.220255 1.88642
RightToes  -3.11842e-008 1.75238e-005 3.56266e-009
Spine  -1.8776 -1.59327 -6.2061
Spine1  16.2428 -2.13613 2.31701
HEad  -15.0479 -7.19821 4.49605
LeftShoulder1  4.48925 -9.38726 -28.7908
LeftArm  -3.71634 -0.538503 -42.754
LeftForeArm  146.132 -58.5639 -161.663
LeftHand  1.06297 -8.59586 -8.39787
RightShoulder  4.30176 8.46528 30.0164
RightArm  -16.3953 8.37629 34.9529
RightForeArm  130.732 50.3007 165.185
RightHand  0.935032 8.64432 7.31097
LeftUpLeg  -3.56184 0.373409 2.81407
LeftLeg  -4.91195 15.5116 -1.75318
LeftFoot  4.91736 0.102405 -0.923766
LeftToes  4.7713e-008 1.46693e-008 1.32589e-009
255
root  -1.58074 41.0135 0.0875338 121.55 -89.6563 -117.31
RightUpLeg  -1.18141 -0.913817 -1.32377
RightLeg  -5.25868 -19.5242 2.65757
RightFoot  3.1891 -0.235472 2.0171
RightToes  -3.11842e-008 1.75238e-005 3.56266e-009
Spine  -2.24076 -2.16449 -6.69726
Spine1  15.5509 -2.61576 2.12359
HEad  -12.7245 -8.61684 5.42324
LeftShoulder1  4.42382 -9.43762 -28.1316
LeftArm  -5.28202 -4.67674 -42.963
LeftForeArm  146.13 -60.7518 -160.11
LeftHand  0.959657 -7.79532 -8.04794
RightShoulder  4.00327 8.00434 28.8267
RightArm  -20.9064 8.70412 33.0217
RightForeArm  127.421 51.0667 164.626
RightHand  0.824199 8.96708 6.23955
LeftUpLeg  -2.60504 0.58422 2.84178
LeftLeg  -4.84999 15.6963 -1.80007
LeftFoot  4.51913 0.109541 -0.984244
LeftToes  4.7713e-008 1.46693e-008 1.32589e-009
